<?xml version="1.0" encoding="UTF-8" standalone="no"?>
<svg
   xmlns:dc="http://purl.org/dc/elements/1.1/"
   xmlns:cc="http://web.resource.org/cc/"
   xmlns:rdf="http://www.w3.org/1999/02/22-rdf-syntax-ns#"
   xmlns:svg="http://www.w3.org/2000/svg"
   xmlns="http://www.w3.org/2000/svg"
   xmlns:sodipodi="http://inkscape.sourceforge.net/DTD/sodipodi-0.dtd"
   xmlns:inkscape="http://www.inkscape.org/namespaces/inkscape"
   version="1.0"
   width="468pt"
   height="468pt"
   viewBox="0 0 468 468"
   preserveAspectRatio="xMidYMid meet"
   id="svg1719"
   sodipodi:version="0.32"
   inkscape:version="0.42+0.43pre2"
   sodipodi:docbase="/home/monge/xiangqi/out"
   sodipodi:docname="black_General.svg">
  <defs
     id="defs1732" />
  <sodipodi:namedview
     inkscape:window-height="548"
     inkscape:window-width="962"
     inkscape:pageshadow="2"
     inkscape:pageopacity="0.0"
     borderopacity="1.0"
     bordercolor="#666666"
     pagecolor="#ffffff"
     id="base"
     inkscape:zoom="0.63931624"
     inkscape:cx="292.5"
     inkscape:cy="292.5"
     inkscape:window-x="310"
     inkscape:window-y="0"
     inkscape:current-layer="svg1719" />
  <metadata
     id="metadata1721">
Created by potrace 1.7, written by Peter Selinger 2001-2005
<rdf:RDF>
  <cc:Work
     rdf:about="">
    <dc:format>image/svg+xml</dc:format>
    <dc:type
       rdf:resource="http://purl.org/dc/dcmitype/StillImage" />
  </cc:Work>
</rdf:RDF>
</metadata>
  <g
     transform="translate(0,468) scale(0.720000,-0.720000)"
     fill="#000000"
     stroke="none"
     id="g1723">
    <path
       d="M248 444 c3 -33 1 -49 -9 -55 -23 -14 -27 -11 -25 23 1 24 -4 33 -17 36 -16 3 -18 -3 -15 -50 3 -55 2 -54 51 -40 15 4 18 0 15 -19 -2 -20 -9 -24 -45 -27 -43 -3 -57 -17 -28 -28 18 -7 12 -35 -17 -76 -12 -17 -15 -28 -8 -28 18 0 69 59 76 86 12 47 27 25 21 -28 -4 -29 -3 -59 2 -67 17 -27 31 1 31 62 l0 62 60 0 61 0 -3 -45 c-3 -37 -7 -45 -26 -50 l-24 -5 26 -24 c38 -36 56 -16 56 65 l0 64 36 0 c45 0 42 24 -4 28 -20 2 -32 9 -32 18 0 8 -5 14 -11 14 -6 0 5 20 25 44 30 38 33 46 21 56 -9 7 -26 10 -41 6 -15 -4 -23 -3 -20 3 4 5 -3 13 -15 16 -11 4 -21 5 -22 3 -1 -1 -17 -23 -36 -47 l-34 -43 32 7 c18 4 31 3 31 -3 0 -12 -24 -22 -51 -22 -12 0 -16 -5 -13 -15 8 -21 27 -19 60 7 15 13 25 17 21 10 -5 -6 -29 -26 -54 -43 l-45 -31 3 78 c4 80 -2 104 -25 104 -10 0 -12 -12 -8 -46z m163 -28 c-10 -12 -16 -13 -26 -3 -11 10 -9 13 9 18 27 7 32 3 17 -15z m-21 -81 c0 -9 -9 -15 -22 -15 -22 1 -23 1 -4 15 25 19 26 19 26 0z"
       id="path1727" />
    <path
       d="M310 272 c0 -12 30 -52 39 -52 19 0 22 35 5 47 -20 14 -44 17 -44 5z"
       id="path1729" />
  </g>
</svg>
