<?xml version="1.0" encoding="UTF-8" standalone="no"?>
<svg
   xmlns:dc="http://purl.org/dc/elements/1.1/"
   xmlns:cc="http://web.resource.org/cc/"
   xmlns:rdf="http://www.w3.org/1999/02/22-rdf-syntax-ns#"
   xmlns:svg="http://www.w3.org/2000/svg"
   xmlns="http://www.w3.org/2000/svg"
   xmlns:sodipodi="http://inkscape.sourceforge.net/DTD/sodipodi-0.dtd"
   xmlns:inkscape="http://www.inkscape.org/namespaces/inkscape"
   version="1.0"
   width="468pt"
   height="468pt"
   viewBox="0 0 468 468"
   preserveAspectRatio="xMidYMid meet"
   id="svg1734"
   sodipodi:version="0.32"
   inkscape:version="0.42+0.43pre2"
   sodipodi:docbase="/home/monge/xiangqi/out"
   sodipodi:docname="black_Horse.svg">
  <defs
     id="defs1753" />
  <sodipodi:namedview
     inkscape:window-height="548"
     inkscape:window-width="962"
     inkscape:pageshadow="2"
     inkscape:pageopacity="0.0"
     borderopacity="1.0"
     bordercolor="#666666"
     pagecolor="#ffffff"
     id="base"
     inkscape:zoom="0.63931624"
     inkscape:cx="292.5"
     inkscape:cy="292.5"
     inkscape:window-x="310"
     inkscape:window-y="416"
     inkscape:current-layer="svg1734" />
  <metadata
     id="metadata1736">
Created by potrace 1.7, written by Peter Selinger 2001-2005
<rdf:RDF>
  <cc:Work
     rdf:about="">
    <dc:format>image/svg+xml</dc:format>
    <dc:type
       rdf:resource="http://purl.org/dc/dcmitype/StillImage" />
  </cc:Work>
</rdf:RDF>
</metadata>
  <g
     transform="translate(0,468) scale(0.720000,-0.720000)"
     fill="#000000"
     stroke="none"
     id="g1738">
    <path
       d="M330 479 c-25 -5 -56 -8 -70 -5 l-25 4 -1 -95 c-1 -92 0 -94 20 -88 12 3 58 9 104 12 l82 6 0 -39 c0 -51 -22 -84 -52 -76 l-22 5 23 -32 c13 -18 28 -30 34 -28 24 8 47 55 56 117 12 77 10 80 -71 80 -32 0 -58 5 -58 10 0 6 16 10 36 10 46 0 41 23 -7 31 -20 4 -25 7 -12 8 56 3 67 31 12 31 -37 0 -38 18 -1 26 46 10 53 14 47 24 -7 12 -33 11 -95 -1z m-20 -44 c0 -8 -9 -15 -20 -15 -11 0 -20 7 -20 15 0 8 9 15 20 15 11 0 20 -7 20 -15z m-7 -52 c-7 -2 -19 -2 -25 0 -7 3 -2 5 12 5 14 0 19 -2 13 -5z m7 -43 c0 -5 -11 -10 -25 -10 -14 0 -25 5 -25 10 0 6 11 10 25 10 14 0 25 -4 25 -10z"
       id="path1742" />
    <path
       d="M180 255 c-7 -20 -9 -43 -6 -52 10 -26 36 5 36 43 0 46 -16 51 -30 9z"
       id="path1744" />
    <path
       d="M355 279 c13 -23 38 -49 45 -49 12 0 19 25 11 38 -3 6 -19 14 -35 18 -23 5 -27 4 -21 -7z"
       id="path1746" />
    <path
       d="M302 264 c4 -20 34 -41 45 -31 10 11 -11 41 -31 45 -12 3 -17 -2 -14 -14z"
       id="path1748" />
    <path
       d="M240 251 c14 -26 30 -35 41 -24 16 16 -2 43 -27 43 -21 0 -23 -3 -14 -19z"
       id="path1750" />
  </g>
</svg>
