<?xml version="1.0" encoding="UTF-8" standalone="no"?>
<svg
   xmlns:dc="http://purl.org/dc/elements/1.1/"
   xmlns:cc="http://web.resource.org/cc/"
   xmlns:rdf="http://www.w3.org/1999/02/22-rdf-syntax-ns#"
   xmlns:svg="http://www.w3.org/2000/svg"
   xmlns="http://www.w3.org/2000/svg"
   xmlns:sodipodi="http://inkscape.sourceforge.net/DTD/sodipodi-0.dtd"
   xmlns:inkscape="http://www.inkscape.org/namespaces/inkscape"
   version="1.0"
   width="468pt"
   height="468pt"
   viewBox="0 0 468 468"
   preserveAspectRatio="xMidYMid meet"
   id="svg1678"
   sodipodi:version="0.32"
   inkscape:version="0.42+0.43pre2"
   sodipodi:docbase="/home/monge/xiangqi/out"
   sodipodi:docname="black_Cannon.svg">
  <defs
     id="defs1691" />
  <sodipodi:namedview
     inkscape:window-height="548"
     inkscape:window-width="962"
     inkscape:pageshadow="2"
     inkscape:pageopacity="0.0"
     borderopacity="1.0"
     bordercolor="#666666"
     pagecolor="#ffffff"
     id="base"
     inkscape:zoom="0.63931624"
     inkscape:cx="292.5"
     inkscape:cy="292.5"
     inkscape:window-x="0"
     inkscape:window-y="0"
     inkscape:current-layer="svg1678" />
  <metadata
     id="metadata1680">
Created by potrace 1.7, written by Peter Selinger 2001-2005
<rdf:RDF>
  <cc:Work
     rdf:about="">
    <dc:format>image/svg+xml</dc:format>
    <dc:type
       rdf:resource="http://purl.org/dc/dcmitype/StillImage" />
  </cc:Work>
</rdf:RDF>
</metadata>
  <g
     transform="translate(0,468) scale(0.720000,-0.720000)"
     fill="#000000"
     stroke="none"
     id="g1682">
    <path
       d="M335 494 c-3 -10 -18 -43 -33 -73 -35 -70 -37 -75 -24 -67 15 9 22 -18 22 -84 0 -51 3 -61 26 -79 33 -26 111 -28 155 -5 27 13 30 19 24 47 -9 42 -23 56 -30 31 -15 -45 -21 -49 -81 -49 l-59 0 -3 33 c-3 29 -1 32 22 32 18 0 26 6 27 18 0 13 3 12 11 -5 24 -50 56 -19 68 64 10 76 1 87 -62 79 l-48 -7 12 26 c9 21 9 29 -5 42 -15 15 -17 15 -22 -3z m95 -108 c0 -33 -19 -81 -28 -71 -4 4 -7 17 -7 28 0 20 -5 22 -48 20 -44 -3 -46 -2 -35 17 12 19 33 25 91 29 22 1 27 -3 27 -23z m-80 -61 c0 -8 -4 -15 -10 -15 -5 0 -10 7 -10 15 0 8 5 15 10 15 6 0 10 -7 10 -15z"
       id="path1686" />
    <path
       d="M215 423 c-47 -10 -51 -14 -32 -28 22 -16 12 -41 -36 -92 -35 -37 -30 -54 8 -29 25 17 25 16 32 -14 4 -22 10 -29 20 -26 8 4 25 6 37 6 17 0 24 9 33 42 14 53 9 61 -33 53 l-34 -6 16 35 c10 20 27 37 41 40 12 4 23 11 23 16 0 10 -38 12 -75 3z m28 -132 c-7 -26 -33 -36 -33 -12 0 21 8 31 26 31 7 0 10 -8 7 -19z"
       id="path1688" />
  </g>
</svg>
