<?xml version="1.0" encoding="UTF-8" standalone="no"?>
<svg
   xmlns:dc="http://purl.org/dc/elements/1.1/"
   xmlns:cc="http://web.resource.org/cc/"
   xmlns:rdf="http://www.w3.org/1999/02/22-rdf-syntax-ns#"
   xmlns:svg="http://www.w3.org/2000/svg"
   xmlns="http://www.w3.org/2000/svg"
   xmlns:sodipodi="http://inkscape.sourceforge.net/DTD/sodipodi-0.dtd"
   xmlns:inkscape="http://www.inkscape.org/namespaces/inkscape"
   version="1.0"
   width="468pt"
   height="468pt"
   viewBox="0 0 468 468"
   preserveAspectRatio="xMidYMid meet"
   id="svg1768"
   sodipodi:version="0.32"
   inkscape:version="0.42+0.43pre2"
   sodipodi:docbase="/home/monge/xiangqi/out"
   sodipodi:docname="red_Advisor.svg">
  <defs
     id="defs1783" />
  <sodipodi:namedview
     inkscape:window-height="548"
     inkscape:window-width="962"
     inkscape:pageshadow="2"
     inkscape:pageopacity="0.0"
     borderopacity="1.0"
     bordercolor="#666666"
     pagecolor="#ffffff"
     id="base"
     inkscape:zoom="0.63931624"
     inkscape:cx="292.5"
     inkscape:cy="292.5"
     inkscape:window-x="0"
     inkscape:window-y="416"
     inkscape:current-layer="svg1768" />
  <metadata
     id="metadata1770">
Created by potrace 1.7, written by Peter Selinger 2001-2005
<rdf:RDF>
  <cc:Work
     rdf:about="">
    <dc:format>image/svg+xml</dc:format>
    <dc:type
       rdf:resource="http://purl.org/dc/dcmitype/StillImage" />
  </cc:Work>
</rdf:RDF>
</metadata>
  <g
     transform="translate(0,468) scale(0.720000,-0.720000)"
     fill="#000000"
     stroke="none"
     id="g1772">
    <path
       d="M247 461 c-3 -16 -29 -58 -56 -95 -53 -70 -53 -83 0 -39 l32 27 -5 -87 c-4 -53 -2 -90 4 -93 21 -13 28 24 26 122 -1 91 1 104 21 133 18 25 20 35 11 46 -18 22 -27 18 -33 -14z"
       id="path1778" />
    <path
       d="M348 474 c-4 -3 -2 -20 3 -37 5 -18 9 -44 9 -59 0 -24 -5 -28 -37 -33 -21 -4 -45 -9 -53 -11 -30 -10 14 -24 53 -18 l38 6 -3 -44 c-3 -42 -4 -43 -40 -46 -39 -3 -50 -15 -23 -26 16 -6 176 11 184 20 12 12 -26 24 -56 19 l-33 -6 0 46 0 45 54 0 c55 0 81 15 55 31 -8 5 -36 6 -63 2 l-49 -6 6 48 c5 30 3 53 -4 61 -12 15 -31 18 -41 8z"
       id="path1780" />
  </g>
</svg>
