<?xml version="1.0" encoding="UTF-8" standalone="no"?>
<svg
   xmlns:dc="http://purl.org/dc/elements/1.1/"
   xmlns:cc="http://web.resource.org/cc/"
   xmlns:rdf="http://www.w3.org/1999/02/22-rdf-syntax-ns#"
   xmlns:svg="http://www.w3.org/2000/svg"
   xmlns="http://www.w3.org/2000/svg"
   xmlns:sodipodi="http://inkscape.sourceforge.net/DTD/sodipodi-0.dtd"
   xmlns:inkscape="http://www.inkscape.org/namespaces/inkscape"
   version="1.0"
   width="468pt"
   height="468pt"
   viewBox="0 0 468 468"
   preserveAspectRatio="xMidYMid meet"
   id="svg1819"
   sodipodi:version="0.32"
   inkscape:version="0.42+0.43pre2"
   sodipodi:docbase="/home/monge/xiangqi/out"
   sodipodi:docname="red_Elephant.svg">
  <defs
     id="defs1834" />
  <sodipodi:namedview
     inkscape:window-height="548"
     inkscape:window-width="962"
     inkscape:pageshadow="2"
     inkscape:pageopacity="0.0"
     borderopacity="1.0"
     bordercolor="#666666"
     pagecolor="#ffffff"
     id="base"
     inkscape:zoom="0.63931624"
     inkscape:cx="292.5"
     inkscape:cy="292.5"
     inkscape:window-x="0"
     inkscape:window-y="0"
     inkscape:current-layer="svg1819" />
  <metadata
     id="metadata1821">
Created by potrace 1.7, written by Peter Selinger 2001-2005
<rdf:RDF>
  <cc:Work
     rdf:about="">
    <dc:format>image/svg+xml</dc:format>
    <dc:type
       rdf:resource="http://purl.org/dc/dcmitype/StillImage" />
  </cc:Work>
</rdf:RDF>
</metadata>
  <g
     transform="translate(0,468) scale(0.720000,-0.720000)"
     fill="#000000"
     stroke="none"
     id="g1823">
    <path
       d="M238 442 l4 -50 -41 -7 c-46 -8 -46 -25 0 -25 29 0 29 0 15 -27 -8 -16 -28 -41 -45 -57 -17 -17 -31 -34 -31 -38 0 -15 57 21 79 49 l21 28 -3 -79 c-1 -56 2 -80 11 -83 9 -4 12 16 12 78 0 79 1 81 18 66 24 -22 32 -21 32 3 0 13 -10 24 -25 30 -33 13 -32 29 5 41 36 13 39 29 6 29 -22 0 -25 5 -28 42 -2 30 -8 44 -19 46 -14 2 -15 -5 -11 -46z"
       id="path1829" />
    <path
       d="M365 423 l-30 -4 1 -107 c1 -137 1 -139 16 -124 18 18 75 15 87 -5 10 -17 12 -17 26 2 9 11 14 29 11 40 -3 11 -6 62 -6 113 l0 92 -37 -2 c-21 0 -51 -3 -68 -5z m73 -40 c2 -17 -2 -23 -15 -23 -10 0 -28 -3 -40 -6 -20 -5 -23 -2 -23 19 0 41 72 50 78 10z m2 -62 c0 -11 -9 -21 -22 -25 -41 -11 -58 -7 -58 13 0 15 8 21 33 24 17 2 35 5 40 5 4 1 7 -6 7 -17z m0 -71 c0 -14 -7 -20 -24 -20 -13 0 -31 -3 -40 -6 -12 -5 -16 0 -16 20 0 24 4 26 40 26 33 0 40 -3 40 -20z"
       id="path1831" />
  </g>
</svg>
