<?xml version="1.0" encoding="UTF-8" standalone="no"?>
<svg
   xmlns:dc="http://purl.org/dc/elements/1.1/"
   xmlns:cc="http://web.resource.org/cc/"
   xmlns:rdf="http://www.w3.org/1999/02/22-rdf-syntax-ns#"
   xmlns:svg="http://www.w3.org/2000/svg"
   xmlns="http://www.w3.org/2000/svg"
   xmlns:sodipodi="http://inkscape.sourceforge.net/DTD/sodipodi-0.dtd"
   xmlns:inkscape="http://www.inkscape.org/namespaces/inkscape"
   version="1.0"
   width="468pt"
   height="468pt"
   viewBox="0 0 468 468"
   preserveAspectRatio="xMidYMid meet"
   id="svg1785"
   sodipodi:version="0.32"
   inkscape:version="0.42+0.43pre2"
   sodipodi:docbase="/home/monge/xiangqi/out"
   sodipodi:docname="red_Cannon.svg">
  <defs
     id="defs1802" />
  <sodipodi:namedview
     inkscape:window-height="548"
     inkscape:window-width="962"
     inkscape:pageshadow="2"
     inkscape:pageopacity="0.0"
     borderopacity="1.0"
     bordercolor="#666666"
     pagecolor="#ffffff"
     id="base"
     inkscape:zoom="0.63931624"
     inkscape:cx="292.5"
     inkscape:cy="292.5"
     inkscape:window-x="310"
     inkscape:window-y="0"
     inkscape:current-layer="svg1785" />
  <metadata
     id="metadata1787">
Created by potrace 1.7, written by Peter Selinger 2001-2005
<rdf:RDF>
  <cc:Work
     rdf:about="">
    <dc:format>image/svg+xml</dc:format>
    <dc:type
       rdf:resource="http://purl.org/dc/dcmitype/StillImage" />
  </cc:Work>
</rdf:RDF>
</metadata>
  <g
     transform="translate(0,468) scale(0.720000,-0.720000)"
     fill="#000000"
     stroke="none"
     id="g1789">
    <path
       d="M350 499 c0 -6 -11 -39 -25 -74 -25 -63 -41 -172 -29 -207 8 -28 57 -48 114 -48 60 0 114 24 106 47 -3 8 -9 26 -12 39 -7 27 -24 23 -24 -6 0 -42 -101 -68 -144 -37 -28 20 -18 61 17 65 15 2 25 7 22 12 -3 5 0 20 7 35 16 36 -1 53 -38 36 -15 -6 -29 -9 -32 -6 -8 8 24 38 45 42 10 1 33 5 51 9 l33 6 -6 -38 c-12 -70 -15 -75 -37 -68 -19 6 -19 5 -3 -19 30 -47 55 -12 71 95 7 56 -4 65 -62 49 -21 -6 -40 -9 -42 -7 -2 2 3 17 12 34 11 22 12 32 3 41 -14 14 -27 14 -27 0z m0 -179 c0 -11 -7 -20 -15 -20 -15 0 -21 21 -8 33 12 13 23 7 23 -13z"
       id="path1795" />
    <path
       d="M218 432 c5 -88 -11 -166 -44 -209 -14 -18 -21 -33 -16 -33 17 0 61 40 67 61 6 19 8 19 24 5 23 -21 31 -20 31 3 0 11 -9 23 -21 26 -17 6 -20 12 -15 37 3 17 6 36 6 42 0 6 14 20 31 30 24 14 28 20 18 32 -16 19 -24 18 -37 -8 -10 -20 -11 -16 -9 27 2 44 -1 50 -18 53 -19 3 -20 -1 -17 -66z"
       id="path1797" />
    <path
       d="M160 379 c0 -20 21 -49 35 -49 20 0 19 25 -1 44 -18 18 -34 21 -34 5z"
       id="path1799" />
  </g>
</svg>
