<?xml version="1.0" encoding="UTF-8" standalone="no"?>
<svg
   xmlns:dc="http://purl.org/dc/elements/1.1/"
   xmlns:cc="http://web.resource.org/cc/"
   xmlns:rdf="http://www.w3.org/1999/02/22-rdf-syntax-ns#"
   xmlns:svg="http://www.w3.org/2000/svg"
   xmlns="http://www.w3.org/2000/svg"
   xmlns:sodipodi="http://inkscape.sourceforge.net/DTD/sodipodi-0.dtd"
   xmlns:inkscape="http://www.inkscape.org/namespaces/inkscape"
   version="1.0"
   width="468pt"
   height="468pt"
   viewBox="0 0 468 468"
   preserveAspectRatio="xMidYMid meet"
   id="svg1853"
   sodipodi:version="0.32"
   inkscape:version="0.42+0.43pre2"
   sodipodi:docbase="/home/monge/xiangqi/out"
   sodipodi:docname="red_Horse.svg">
  <defs
     id="defs1876" />
  <sodipodi:namedview
     inkscape:window-height="548"
     inkscape:window-width="962"
     inkscape:pageshadow="2"
     inkscape:pageopacity="0.0"
     borderopacity="1.0"
     bordercolor="#666666"
     pagecolor="#ffffff"
     id="base"
     inkscape:zoom="0.63931624"
     inkscape:cx="292.5"
     inkscape:cy="292.5"
     inkscape:window-x="310"
     inkscape:window-y="0"
     inkscape:current-layer="svg1853" />
  <metadata
     id="metadata1855">
Created by potrace 1.7, written by Peter Selinger 2001-2005
<rdf:RDF>
  <cc:Work
     rdf:about="">
    <dc:format>image/svg+xml</dc:format>
    <dc:type
       rdf:resource="http://purl.org/dc/dcmitype/StillImage" />
  </cc:Work>
</rdf:RDF>
</metadata>
  <g
     transform="translate(0,468) scale(0.720000,-0.720000)"
     fill="#000000"
     stroke="none"
     id="g1857">
    <path
       d="M230 460 c0 -27 -24 -74 -62 -122 -35 -44 -27 -50 15 -10 l30 27 -7 -92 c-5 -79 -3 -93 9 -93 12 0 15 16 17 78 1 42 2 93 2 112 1 19 10 47 20 62 10 16 16 35 12 43 -8 22 -36 18 -36 -5z"
       id="path1863" />
    <path
       d="M335 466 l-50 -11 1 -83 c1 -46 4 -85 6 -88 3 -2 29 0 58 6 93 18 100 16 100 -28 0 -46 -20 -78 -44 -69 -21 8 -20 -2 4 -33 18 -24 20 -24 37 -7 17 17 46 143 36 160 -2 4 -24 7 -49 7 -32 0 -44 4 -44 15 0 9 9 15 25 15 14 0 25 5 25 10 0 6 -11 10 -25 10 -16 0 -25 6 -25 15 0 9 9 15 25 15 14 0 25 5 25 10 0 6 -11 10 -25 10 -36 0 -32 29 5 37 17 3 30 9 30 14 0 12 -53 10 -115 -5z m23 -39 c2 -12 -3 -17 -17 -17 -12 0 -21 6 -21 13 0 31 32 34 38 4z m0 -49 c-7 -19 -38 -22 -38 -4 0 10 9 16 21 16 12 0 19 -5 17 -12z m2 -53 c0 -9 -9 -15 -25 -15 -16 0 -25 6 -25 15 0 9 9 15 25 15 16 0 25 -6 25 -15z"
       id="path1865" />
    <path
       d="M380 284 c0 -16 23 -44 35 -44 20 0 19 20 -2 36 -19 14 -33 18 -33 8z"
       id="path1867" />
    <path
       d="M260 239 c-10 -22 -10 -33 -2 -41 15 -15 22 -7 29 36 7 44 -10 48 -27 5z"
       id="path1869" />
    <path
       d="M340 265 c0 -14 21 -45 31 -45 18 0 5 45 -13 48 -10 2 -18 1 -18 -3z"
       id="path1871" />
    <path
       d="M304 244 c3 -9 6 -20 6 -25 0 -5 7 -9 15 -9 8 0 15 4 15 9 0 21 -13 41 -27 41 -10 0 -13 -6 -9 -16z"
       id="path1873" />
  </g>
</svg>
