<?xml version="1.0" encoding="UTF-8" standalone="no"?>
<svg
   xmlns:dc="http://purl.org/dc/elements/1.1/"
   xmlns:cc="http://web.resource.org/cc/"
   xmlns:rdf="http://www.w3.org/1999/02/22-rdf-syntax-ns#"
   xmlns:svg="http://www.w3.org/2000/svg"
   xmlns="http://www.w3.org/2000/svg"
   xmlns:sodipodi="http://inkscape.sourceforge.net/DTD/sodipodi-0.dtd"
   xmlns:inkscape="http://www.inkscape.org/namespaces/inkscape"
   version="1.0"
   width="468pt"
   height="468pt"
   viewBox="0 0 468 468"
   preserveAspectRatio="xMidYMid meet"
   id="svg2"
   sodipodi:version="0.32"
   inkscape:version="0.42+0.43pre2"
   sodipodi:docbase="/home/monge/xiangqi/out"
   sodipodi:docname="black_Advisor.svg">
  <defs
     id="defs13" />
  <sodipodi:namedview
     inkscape:window-height="857"
     inkscape:window-width="1092"
     inkscape:pageshadow="2"
     inkscape:pageopacity="0.0"
     borderopacity="1.0"
     bordercolor="#666666"
     pagecolor="#ffffff"
     id="base"
     inkscape:zoom="0.63931624"
     inkscape:cx="292.5"
     inkscape:cy="292.5"
     inkscape:window-x="118"
     inkscape:window-y="207"
     inkscape:current-layer="svg2" />
  <metadata
     id="metadata4">
Created by potrace 1.7, written by Peter Selinger 2001-2005
<rdf:RDF>
  <cc:Work
     rdf:about="">
    <dc:format>image/svg+xml</dc:format>
    <dc:type
       rdf:resource="http://purl.org/dc/dcmitype/StillImage" />
  </cc:Work>
</rdf:RDF>
</metadata>
  <g
     transform="translate(0,468) scale(0.720000,-0.720000)"
     fill="#000000"
     stroke="none"
     id="g6">
    <path
       d="M298 417 l4 -74 -73 -7 c-40 -3 -75 -9 -78 -11 -10 -10 35 -35 54 -29 11 3 37 8 58 11 l37 6 0 -52 0 -51 -46 0 c-32 0 -44 -4 -41 -12 3 -10 33 -12 118 -9 63 1 118 7 123 11 15 15 -32 31 -74 24 l-40 -7 0 52 0 51 85 0 c84 0 99 6 71 29 -10 9 -36 10 -85 5 -70 -6 -71 -6 -71 17 0 13 4 41 9 61 10 41 0 58 -34 58 -19 0 -20 -5 -17 -73z"
       id="path10" />
  </g>
</svg>
