<?xml version="1.0" encoding="UTF-8" standalone="no"?>
<svg
   xmlns:dc="http://purl.org/dc/elements/1.1/"
   xmlns:cc="http://web.resource.org/cc/"
   xmlns:rdf="http://www.w3.org/1999/02/22-rdf-syntax-ns#"
   xmlns:svg="http://www.w3.org/2000/svg"
   xmlns="http://www.w3.org/2000/svg"
   xmlns:sodipodi="http://inkscape.sourceforge.net/DTD/sodipodi-0.dtd"
   xmlns:inkscape="http://www.inkscape.org/namespaces/inkscape"
   version="1.0"
   width="468pt"
   height="468pt"
   viewBox="0 0 468 468"
   preserveAspectRatio="xMidYMid meet"
   id="svg1755"
   sodipodi:version="0.32"
   inkscape:version="0.42+0.43pre2"
   sodipodi:docbase="/home/monge/xiangqi/out"
   sodipodi:docname="black_Soldier.svg">
  <defs
     id="defs1766" />
  <sodipodi:namedview
     inkscape:window-height="548"
     inkscape:window-width="962"
     inkscape:pageshadow="2"
     inkscape:pageopacity="0.0"
     borderopacity="1.0"
     bordercolor="#666666"
     pagecolor="#ffffff"
     id="base"
     inkscape:zoom="0.63931624"
     inkscape:cx="292.5"
     inkscape:cy="292.5"
     inkscape:window-x="0"
     inkscape:window-y="0"
     inkscape:current-layer="svg1755" />
  <metadata
     id="metadata1757">
Created by potrace 1.7, written by Peter Selinger 2001-2005
<rdf:RDF>
  <cc:Work
     rdf:about="">
    <dc:format>image/svg+xml</dc:format>
    <dc:type
       rdf:resource="http://purl.org/dc/dcmitype/StillImage" />
  </cc:Work>
</rdf:RDF>
</metadata>
  <g
     transform="translate(0,468) scale(0.720000,-0.720000)"
     fill="#000000"
     stroke="none"
     id="g1759">
    <path
       d="M310 501 c15 -29 13 -31 -22 -31 -45 0 -79 -10 -72 -21 3 -5 14 -9 25 -9 26 0 24 -20 -6 -65 -30 -44 -25 -58 9 -26 20 19 24 20 36 6 7 -8 19 -15 26 -15 8 0 14 -6 14 -14 0 -14 -60 -26 -126 -26 -33 0 -46 -14 -21 -23 6 -3 42 -2 80 1 l67 5 0 -71 c0 -68 11 -99 24 -66 3 9 6 34 6 57 0 84 3 87 86 87 44 0 74 4 74 10 0 18 -39 26 -96 20 -50 -6 -55 -5 -52 13 5 33 34 44 58 22 15 -14 23 -16 32 -7 13 13 -6 42 -29 42 -10 0 -11 5 -4 18 7 13 6 23 -1 30 -9 9 -8 12 3 12 7 0 21 5 29 10 23 15 -7 31 -47 24 -23 -4 -36 -1 -52 15 -28 28 -56 29 -41 2z m70 -74 c0 -29 -26 -67 -46 -67 -24 0 -43 25 -37 49 3 13 0 22 -8 23 -8 0 6 4 31 8 25 4 48 8 53 8 4 1 7 -8 7 -21z"
       id="path1763" />
  </g>
</svg>
