<?xml version="1.0" encoding="UTF-8" standalone="no"?>
<svg
   xmlns:dc="http://purl.org/dc/elements/1.1/"
   xmlns:cc="http://web.resource.org/cc/"
   xmlns:rdf="http://www.w3.org/1999/02/22-rdf-syntax-ns#"
   xmlns:svg="http://www.w3.org/2000/svg"
   xmlns="http://www.w3.org/2000/svg"
   xmlns:sodipodi="http://inkscape.sourceforge.net/DTD/sodipodi-0.dtd"
   xmlns:inkscape="http://www.inkscape.org/namespaces/inkscape"
   version="1.0"
   width="468pt"
   height="468pt"
   viewBox="0 0 468 468"
   preserveAspectRatio="xMidYMid meet"
   id="svg1706"
   sodipodi:version="0.32"
   inkscape:version="0.42+0.43pre2"
   sodipodi:docbase="/home/monge/xiangqi/out"
   sodipodi:docname="black_Elephant.svg">
  <defs
     id="defs1717" />
  <sodipodi:namedview
     inkscape:window-height="548"
     inkscape:window-width="962"
     inkscape:pageshadow="2"
     inkscape:pageopacity="0.0"
     borderopacity="1.0"
     bordercolor="#666666"
     pagecolor="#ffffff"
     id="base"
     inkscape:zoom="0.63931624"
     inkscape:cx="292.5"
     inkscape:cy="292.5"
     inkscape:window-x="0"
     inkscape:window-y="416"
     inkscape:current-layer="svg1706" />
  <metadata
     id="metadata1708">
Created by potrace 1.7, written by Peter Selinger 2001-2005
<rdf:RDF>
  <cc:Work
     rdf:about="">
    <dc:format>image/svg+xml</dc:format>
    <dc:type
       rdf:resource="http://purl.org/dc/dcmitype/StillImage" />
  </cc:Work>
</rdf:RDF>
</metadata>
  <g
     transform="translate(0,468) scale(0.720000,-0.720000)"
     fill="#000000"
     stroke="none"
     id="g1710">
    <path
       d="M273 480 c-9 -16 -21 -30 -25 -30 -18 0 -27 -38 -17 -74 9 -32 13 -36 32 -30 16 4 13 -1 -12 -20 -19 -14 -39 -27 -45 -29 -6 -2 -8 -8 -4 -12 4 -4 26 2 49 14 23 12 44 20 46 17 4 -4 -20 -23 -93 -74 -38 -26 39 -2 81 25 l40 26 -25 -28 c-14 -15 -45 -39 -69 -53 -63 -37 -32 -40 40 -5 57 29 60 29 57 9 -2 -11 -13 -23 -25 -26 -21 -5 -21 -5 -2 -29 11 -14 25 -21 34 -17 18 7 35 47 35 83 l0 25 40 -36 c33 -30 45 -35 68 -30 32 8 41 15 26 21 -27 9 -118 69 -121 79 -2 6 10 17 27 24 32 13 39 27 16 36 -8 3 -24 -4 -35 -15 -24 -24 -44 -27 -60 -8 -15 19 -4 27 35 27 26 0 36 6 53 35 l20 35 -21 11 c-11 6 -32 9 -47 6 l-26 -5 23 19 c28 22 20 43 -14 36 -14 -2 -25 1 -28 9 -9 23 -34 16 -53 -16z m37 -45 c-7 -8 -24 -15 -38 -15 -25 0 -25 1 -6 15 10 8 27 15 38 15 15 0 16 -3 6 -15z m70 -40 c0 -9 -9 -15 -25 -15 -24 0 -32 10 -18 23 12 13 43 7 43 -8z m-80 -10 c0 -8 -9 -15 -20 -15 -11 0 -20 7 -20 15 0 8 9 15 20 15 11 0 20 -7 20 -15z"
       id="path1714" />
  </g>
</svg>
