<?xml version="1.0" encoding="UTF-8" standalone="no"?>
<svg
   xmlns:dc="http://purl.org/dc/elements/1.1/"
   xmlns:cc="http://web.resource.org/cc/"
   xmlns:rdf="http://www.w3.org/1999/02/22-rdf-syntax-ns#"
   xmlns:svg="http://www.w3.org/2000/svg"
   xmlns="http://www.w3.org/2000/svg"
   xmlns:sodipodi="http://inkscape.sourceforge.net/DTD/sodipodi-0.dtd"
   xmlns:inkscape="http://www.inkscape.org/namespaces/inkscape"
   version="1.0"
   width="468pt"
   height="468pt"
   viewBox="0 0 468 468"
   preserveAspectRatio="xMidYMid meet"
   id="svg1804"
   sodipodi:version="0.32"
   inkscape:version="0.42+0.43pre2"
   sodipodi:docbase="/home/monge/xiangqi/out"
   sodipodi:docname="red_Chariot.svg">
  <defs
     id="defs1817" />
  <sodipodi:namedview
     inkscape:window-height="548"
     inkscape:window-width="962"
     inkscape:pageshadow="2"
     inkscape:pageopacity="0.0"
     borderopacity="1.0"
     bordercolor="#666666"
     pagecolor="#ffffff"
     id="base"
     inkscape:zoom="0.63931624"
     inkscape:cx="292.5"
     inkscape:cy="292.5"
     inkscape:window-x="310"
     inkscape:window-y="416"
     inkscape:current-layer="svg1804" />
  <metadata
     id="metadata1806">
Created by potrace 1.7, written by Peter Selinger 2001-2005
<rdf:RDF>
  <cc:Work
     rdf:about="">
    <dc:format>image/svg+xml</dc:format>
    <dc:type
       rdf:resource="http://purl.org/dc/dcmitype/StillImage" />
  </cc:Work>
</rdf:RDF>
</metadata>
  <g
     transform="translate(0,468) scale(0.720000,-0.720000)"
     fill="#000000"
     stroke="none"
     id="g1808">
    <path
       d="M346 505 c5 -31 4 -35 -14 -35 -29 0 -53 -11 -46 -21 3 -5 18 -9 35 -9 31 0 39 -14 13 -24 -9 -3 -29 -6 -46 -6 -23 0 -28 -3 -20 -12 5 -7 13 -34 16 -61 7 -44 9 -47 33 -45 14 2 28 -2 30 -8 5 -14 -29 -24 -84 -24 l-41 0 -4 68 c-3 56 0 74 20 109 21 39 22 42 6 51 -15 9 -21 2 -40 -43 -11 -30 -36 -72 -53 -94 -37 -47 -31 -54 12 -13 l30 27 -5 -90 c-3 -49 -3 -96 -1 -102 8 -22 23 -14 23 11 0 46 7 51 73 51 l62 0 3 -62 c4 -94 32 -74 32 23 l0 41 46 7 c26 3 60 6 77 6 26 0 28 2 16 16 -11 13 -25 15 -76 9 -53 -5 -63 -4 -63 9 0 9 11 16 32 18 29 3 34 8 50 56 10 29 16 57 13 63 -4 5 -26 9 -51 9 -51 0 -60 17 -11 22 42 4 41 22 -1 26 -24 3 -32 8 -30 20 3 22 -10 42 -28 42 -12 0 -13 -8 -8 -35z m88 -110 c1 -5 -11 -11 -26 -13 -16 -2 -28 1 -28 7 0 20 53 26 54 6z m-94 -10 c0 -8 -9 -15 -20 -15 -22 0 -27 15 -7 23 21 9 27 7 27 -8z m4 -40 c1 -5 -7 -11 -16 -13 -11 -2 -18 3 -18 13 0 18 33 18 34 0z m86 5 c0 -5 -9 -10 -19 -10 -11 0 -23 5 -26 10 -4 6 5 10 19 10 14 0 26 -4 26 -10z"
       id="path1814" />
  </g>
</svg>
