<?xml version="1.0" encoding="UTF-8" standalone="no"?>
<svg
   xmlns:dc="http://purl.org/dc/elements/1.1/"
   xmlns:cc="http://web.resource.org/cc/"
   xmlns:rdf="http://www.w3.org/1999/02/22-rdf-syntax-ns#"
   xmlns:svg="http://www.w3.org/2000/svg"
   xmlns="http://www.w3.org/2000/svg"
   xmlns:sodipodi="http://inkscape.sourceforge.net/DTD/sodipodi-0.dtd"
   xmlns:inkscape="http://www.inkscape.org/namespaces/inkscape"
   version="1.0"
   width="468pt"
   height="468pt"
   viewBox="0 0 468 468"
   preserveAspectRatio="xMidYMid meet"
   id="svg1878"
   sodipodi:version="0.32"
   inkscape:version="0.42+0.43pre2"
   sodipodi:docbase="/home/monge/xiangqi/out"
   sodipodi:docname="red_Soldier.svg">
  <defs
     id="defs1895" />
  <sodipodi:namedview
     inkscape:window-height="548"
     inkscape:window-width="962"
     inkscape:pageshadow="2"
     inkscape:pageopacity="0.0"
     borderopacity="1.0"
     bordercolor="#666666"
     pagecolor="#ffffff"
     id="base"
     inkscape:zoom="0.63931624"
     inkscape:cx="292.5"
     inkscape:cy="292.5"
     inkscape:window-x="160"
     inkscape:window-y="287"
     inkscape:current-layer="svg1878" />
  <metadata
     id="metadata1880">
Created by potrace 1.7, written by Peter Selinger 2001-2005
<rdf:RDF>
  <cc:Work
     rdf:about="">
    <dc:format>image/svg+xml</dc:format>
    <dc:type
       rdf:resource="http://purl.org/dc/dcmitype/StillImage" />
  </cc:Work>
</rdf:RDF>
</metadata>
  <g
     transform="translate(0,468) scale(0.720000,-0.720000)"
     fill="#000000"
     stroke="none"
     id="g1882">
    <path
       d="M317 486 c-24 -15 -48 -21 -64 -18 -21 4 -24 2 -20 -14 7 -21 27 -133 27 -146 0 -4 -26 -8 -57 -8 -53 0 -56 -1 -41 -17 15 -14 24 -15 74 -5 32 7 106 12 167 12 82 0 108 3 104 13 -2 8 -24 12 -61 12 -56 0 -57 1 -51 25 3 14 6 33 6 43 0 11 8 17 25 17 13 0 24 4 24 9 0 18 -32 20 -96 4 -56 -14 -67 -14 -74 -2 -14 22 6 35 70 49 59 12 77 31 44 44 -24 9 -35 6 -77 -18z m43 -136 c0 -39 -1 -40 -34 -40 -26 0 -35 5 -40 23 -10 39 -7 46 27 50 17 2 35 5 40 5 4 1 7 -16 7 -38z"
       id="path1888" />
    <path
       d="M229 219 c-49 -52 -48 -59 4 -33 66 34 89 55 76 70 -17 21 -30 15 -80 -37z"
       id="path1890" />
    <path
       d="M391 215 c45 -47 69 -57 69 -27 0 25 -11 37 -47 56 -59 30 -68 19 -22 -29z"
       id="path1892" />
  </g>
</svg>
