<?xml version="1.0" encoding="UTF-8" standalone="no"?>
<svg
   xmlns:dc="http://purl.org/dc/elements/1.1/"
   xmlns:cc="http://web.resource.org/cc/"
   xmlns:rdf="http://www.w3.org/1999/02/22-rdf-syntax-ns#"
   xmlns:svg="http://www.w3.org/2000/svg"
   xmlns="http://www.w3.org/2000/svg"
   xmlns:sodipodi="http://inkscape.sourceforge.net/DTD/sodipodi-0.dtd"
   xmlns:inkscape="http://www.inkscape.org/namespaces/inkscape"
   version="1.0"
   width="468pt"
   height="468pt"
   viewBox="0 0 468 468"
   preserveAspectRatio="xMidYMid meet"
   id="svg1836"
   sodipodi:version="0.32"
   inkscape:version="0.42+0.43pre2"
   sodipodi:docbase="/home/monge/xiangqi/out"
   sodipodi:docname="red_General.svg">
  <defs
     id="defs1851" />
  <sodipodi:namedview
     inkscape:window-height="548"
     inkscape:window-width="962"
     inkscape:pageshadow="2"
     inkscape:pageopacity="0.0"
     borderopacity="1.0"
     bordercolor="#666666"
     pagecolor="#ffffff"
     id="base"
     inkscape:zoom="0.63931624"
     inkscape:cx="292.5"
     inkscape:cy="292.5"
     inkscape:window-x="0"
     inkscape:window-y="416"
     inkscape:current-layer="svg1836" />
  <metadata
     id="metadata1838">
Created by potrace 1.7, written by Peter Selinger 2001-2005
<rdf:RDF>
  <cc:Work
     rdf:about="">
    <dc:format>image/svg+xml</dc:format>
    <dc:type
       rdf:resource="http://purl.org/dc/dcmitype/StillImage" />
  </cc:Work>
</rdf:RDF>
</metadata>
  <g
     transform="translate(0,468) scale(0.720000,-0.720000)"
     fill="#000000"
     stroke="none"
     id="g1840">
    <path
       d="M365 453 c0 -54 -2 -58 -25 -61 -23 -3 -25 -7 -27 -62 -4 -92 21 -88 29 4 2 16 9 31 16 34 9 3 12 -24 12 -112 0 -63 4 -117 9 -120 16 -10 21 23 21 135 l0 109 25 0 c21 0 25 -5 25 -29 0 -40 -9 -61 -26 -61 -11 0 -9 -6 6 -22 18 -19 22 -20 34 -8 19 20 27 127 10 141 -7 5 -25 9 -41 7 -28 -3 -28 -3 -26 50 2 48 1 52 -20 52 -21 0 -22 -5 -22 -57z"
       id="path1846" />
    <path
       d="M220 485 c0 -23 -22 -65 -34 -65 -16 0 -14 -196 2 -212 8 -8 12 -9 12 -1 0 7 19 15 43 18 33 5 42 11 44 28 1 12 4 31 5 42 3 18 -2 20 -44 17 -57 -4 -64 13 -10 23 32 5 39 11 48 41 14 43 -1 59 -40 44 -32 -12 -33 -4 -5 26 12 13 19 30 16 38 -8 20 -37 21 -37 1z m34 -93 c7 -11 -6 -27 -26 -35 -13 -5 -18 -1 -18 12 0 24 33 41 44 23z m4 -119 c-4 -22 -58 -31 -58 -10 0 20 10 27 37 27 18 0 24 -5 21 -17z"
       id="path1848" />
  </g>
</svg>
